# Blender v2.90.0 OBJ File: ''
# www.blender.org
mtllib flame.mtl
o flame9_Cylinder.014
v 0.004085 -0.029411 0.015890
v 0.006063 0.002002 0.023581
v -0.011294 0.000853 0.021181
v -0.009058 -0.029237 0.014026
v 0.003045 0.029504 0.011844
v -0.006609 0.028539 0.010554
v -0.021794 -0.001920 0.007311
v -0.017031 -0.028817 0.003417
v -0.012427 0.026210 0.002945
v -0.019286 -0.004694 -0.009903
v -0.015163 -0.028395 -0.009722
v -0.011001 0.023881 -0.006527
v -0.005239 -0.005842 -0.020377
v -0.004549 -0.028220 -0.017694
v -0.003166 0.022916 -0.012313
v 0.012117 -0.004694 -0.017976
v 0.008594 -0.028395 -0.015830
v 0.006488 0.023881 -0.011024
v 0.022617 -0.001920 -0.004107
v 0.016567 -0.028817 -0.005221
v 0.012306 0.026210 -0.003414
v 0.020109 0.000853 0.013107
v 0.014699 -0.029237 0.007918
v 0.010880 0.028539 0.006058
v -0.000232 -0.039503 -0.000902
v -0.000723 0.075706 -0.002812
vt 0.367779 0.126398
vt 0.308062 0.362618
vt 0.358046 0.353979
vt 0.405968 0.127702
vt 0.399199 0.569430
vt 0.426668 0.562175
vt 0.478720 0.333124
vt 0.498162 0.130860
vt 0.492983 0.544660
vt 0.599393 0.312268
vt 0.590356 0.134034
vt 0.559296 0.527146
vt 0.649378 0.303630
vt 0.628543 0.135354
vt 0.586765 0.519891
vt 0.599393 0.312268
vt 0.590356 0.134034
vt 0.559296 0.527146
vt 0.478720 0.333124
vt 0.498162 0.130860
vt 0.492983 0.544660
vt 0.358046 0.353979
vt 0.405968 0.127702
vt 0.426668 0.562175
vt 0.498161 0.050505
vt 0.512991 0.916868
vn 0.2057 -0.5636 0.8000
vn 0.2480 0.0885 0.9647
vn -0.5097 0.0784 0.8567
vn -0.4290 -0.5557 0.7121
vn 0.2323 0.3598 0.9036
vn -0.5155 0.3404 0.7863
vn -0.9673 0.0627 0.2458
vn -0.8239 -0.5318 0.1954
vn -0.9391 0.2946 0.1766
vn -0.8585 0.0621 -0.5089
vn -0.7371 -0.5004 -0.4543
vn -0.8095 0.2515 -0.5305
vn -0.2484 0.0676 -0.9663
vn -0.2177 -0.4851 -0.8469
vn -0.2420 0.2346 -0.9414
vn 0.5066 0.0621 -0.8599
vn 0.4266 -0.5003 -0.7534
vn 0.4532 0.2515 -0.8552
vn 0.9659 0.0627 -0.2513
vn 0.8161 -0.5318 -0.2262
vn 0.9079 0.2946 -0.2982
vn 0.8597 0.0784 0.5047
vn 0.7193 -0.5557 0.4169
vn 0.8309 0.3404 0.4402
vn -0.0060 -0.9997 -0.0234
vn -0.0162 0.9979 -0.0631
usemtl flame
s 1
f 1/1/1 2/2/2 3/3/3 4/4/4
f 2/2/2 5/5/5 6/6/6 3/3/3
f 4/4/4 3/3/3 7/7/7 8/8/8
f 3/3/3 6/6/6 9/9/9 7/7/7
f 8/8/8 7/7/7 10/10/10 11/11/11
f 7/7/7 9/9/9 12/12/12 10/10/10
f 11/11/11 10/10/10 13/13/13 14/14/14
f 10/10/10 12/12/12 15/15/15 13/13/13
f 14/14/14 13/13/13 16/16/16 17/17/17
f 13/13/13 15/15/15 18/18/18 16/16/16
f 17/17/17 16/16/16 19/19/19 20/20/20
f 16/16/16 18/18/18 21/21/21 19/19/19
f 20/20/20 19/19/19 22/22/22 23/23/23
f 19/19/19 21/21/21 24/24/24 22/22/22
f 25/25/25 1/1/1 4/4/4
f 5/5/5 26/26/26 6/6/6
f 25/25/25 4/4/4 8/8/8
f 6/6/6 26/26/26 9/9/9
f 25/25/25 8/8/8 11/11/11
f 9/9/9 26/26/26 12/12/12
f 25/25/25 11/11/11 14/14/14
f 12/12/12 26/26/26 15/15/15
f 25/25/25 14/14/14 17/17/17
f 15/15/15 26/26/26 18/18/18
f 25/25/25 17/17/17 20/20/20
f 18/18/18 26/26/26 21/21/21
f 25/25/25 20/20/20 23/23/23
f 21/21/21 26/26/26 24/24/24
f 25/25/25 23/23/23 1/1/1
f 23/23/23 22/22/22 2/2/2 1/1/1
f 22/22/22 24/24/24 5/5/5 2/2/2
f 24/24/24 26/26/26 5/5/5
